<svg width="16" height="16" viewBox="0 0 16 16" fill="none" xmlns="http://www.w3.org/2000/svg">
<path fill-rule="evenodd" clip-rule="evenodd" d="M6.79567 2L6.71955 2.39583L6.43029 3.84215C5.96595 4.02484 5.54728 4.28175 5.16667 4.58814L3.7508 4.10096L3.37019 3.97917L3.17228 4.32933L2.19792 6.00401L2 6.35417L2.28926 6.61298L3.38542 7.57212C3.34545 7.82141 3.29407 8.07071 3.29407 8.33333C3.29407 8.59595 3.34545 8.84525 3.38542 9.09455L2.28926 10.0537L2 10.3125L2.19792 10.6627L3.17228 12.3373L3.37019 12.6875L3.7508 12.5657L5.16667 12.0785C5.54728 12.3849 5.96595 12.6418 6.43029 12.8245L6.71955 14.2708L6.79567 14.6667H9.53606L9.61218 14.2708L9.90144 12.8245C10.3658 12.6418 10.7845 12.3849 11.1651 12.0785L12.5809 12.5657L12.9615 12.6875L13.1595 12.3373L14.1338 10.6627L14.3317 10.3125L14.0425 10.0537L12.9463 9.09455C12.9863 8.84525 13.0377 8.59595 13.0377 8.33333C13.0377 8.07071 12.9863 7.82141 12.9463 7.57212L14.0425 6.61298L14.3317 6.35417L14.1338 6.00401L13.1595 4.32933L12.9615 3.97917L12.5809 4.10096L11.1651 4.58814C10.7845 4.28175 10.3658 4.02484 9.90144 3.84215L9.61218 2.39583L9.53606 2H6.79567ZM7.58734 2.97436H8.74439L8.98798 4.23798L9.04888 4.52724L9.32292 4.61859C9.8767 4.79177 10.3791 5.08484 10.7997 5.47115L11.0128 5.66907L11.2869 5.57772L12.52 5.15144L13.0986 6.14103L12.1242 7.00881L11.8958 7.19151L11.972 7.48077C12.0348 7.75861 12.0633 8.04217 12.0633 8.33333C12.0633 8.6245 12.0348 8.90805 11.972 9.1859L11.9111 9.47516L12.1242 9.65785L13.0986 10.5256L12.52 11.5152L11.2869 11.0889L11.0128 10.9976L10.7997 11.1955C10.3791 11.5818 9.8767 11.8749 9.32292 12.0481L9.04888 12.1394L8.98798 12.4287L8.74439 13.6923H7.58734L7.34375 12.4287L7.28285 12.1394L7.00881 12.0481C6.45503 11.8749 5.95262 11.5818 5.53205 11.1955L5.31891 10.9976L5.04487 11.0889L3.8117 11.5152L3.23317 10.5256L4.20753 9.65785L4.4359 9.47516L4.35978 9.1859C4.29698 8.90805 4.26843 8.6245 4.26843 8.33333C4.26843 8.04217 4.29698 7.75861 4.35978 7.48077L4.4359 7.19151L4.20753 7.00881L3.23317 6.14103L3.8117 5.15144L5.04487 5.57772L5.31891 5.66907L5.53205 5.47115C5.95262 5.08484 6.45503 4.79177 7.00881 4.61859L7.28285 4.52724L7.34375 4.23798L7.58734 2.97436ZM8.16587 5.89744C6.82612 5.89744 5.72997 6.99359 5.72997 8.33333C5.72997 9.67308 6.82612 10.7692 8.16587 10.7692C9.50561 10.7692 10.6018 9.67308 10.6018 8.33333C10.6018 6.99359 9.50561 5.89744 8.16587 5.89744ZM8.16587 6.87179C8.97847 6.87179 9.6274 7.52073 9.6274 8.33333C9.6274 9.14593 8.97847 9.79487 8.16587 9.79487C7.35327 9.79487 6.70433 9.14593 6.70433 8.33333C6.70433 7.52073 7.35327 6.87179 8.16587 6.87179Z" fill="#0F3D68"/>
</svg>
